<?xml version="1.0" standalone="no"?><!DOCTYPE svg PUBLIC "-//W3C//DTD SVG 1.1//EN" "http://www.w3.org/Graphics/SVG/1.1/DTD/svg11.dtd"><svg t="1541820749310" class="icon" style="" viewBox="0 0 1024 1024" version="1.1" xmlns="http://www.w3.org/2000/svg" p-id="3844" xmlns:xlink="http://www.w3.org/1999/xlink" width="200" height="200"><defs><style type="text/css"></style></defs><path d="M965.44256 383.18592L530.9952 155.71456a40.96 40.96 0 0 0-38.00064 0L58.55744 383.18592a40.94976 40.94976 0 0 0-21.78048 32.75264c-0.33792 2.10944-0.5632 4.25472-0.5632 6.46144v307.2a40.96 40.96 0 0 0 81.92 0V480.2304l101.40672 41.3184A40.7552 40.7552 0 0 0 215.04 540.16v204.8c0 11.86304 5.0432 22.5536 13.11232 30.03392C269.0304 842.51648 396.7232 872.96 512 872.96s242.96448-30.44352 283.84256-97.96608a40.8576 40.8576 0 0 0 13.11232-30.03392v-204.8a40.69376 40.69376 0 0 0-4.5056-18.6112l157.45024-64.14848a40.96 40.96 0 0 0 3.54304-74.2144z m-263.71584 181.20192l-174.45376 70.0928a40.9088 40.9088 0 0 1-30.59712-0.02048l-173.70112-70.0928a40.87296 40.87296 0 0 1-6.66112-3.48672 39.8336 39.8336 0 0 1-2.304-1.58208c-0.31232-0.22528-0.60928-0.46592-0.91136-0.70144a40.76032 40.76032 0 0 1-2.048-1.6896c-0.3328-0.29696-0.64-0.60928-0.96256-0.9216-0.62976-0.59904-1.26464-1.19808-1.84832-1.83808a42.86464 42.86464 0 0 1-2.26816-2.67264c-0.26112-0.3328-0.4864-0.6912-0.73216-1.02912a42.56768 42.56768 0 0 1-1.59744-2.3296c-0.19456-0.31744-0.37376-0.63488-0.55808-0.95232a39.936 39.936 0 0 1-1.47456-2.72384l-0.35328-0.73728a40.70912 40.70912 0 0 1-0.93696-32.65536 40.96512 40.96512 0 0 1 53.31456-22.656L481.88416 540.16l30.14656 12.16512 30.27968-12.16512 128.87552-51.77856a40.95488 40.95488 0 0 1 53.27872 22.7328 40.7552 40.7552 0 0 1 0.49152 29.12256 39.23968 39.23968 0 0 1-1.60256 3.82976v0.00512a41.17504 41.17504 0 0 1-4.29056 7.04512c-0.17408 0.2304-0.36352 0.45056-0.54272 0.67584a37.9392 37.9392 0 0 1-4.64896 4.96128c-0.41984 0.37888-0.83968 0.76288-1.28 1.13152-0.56832 0.47616-1.17248 0.91648-1.77152 1.36192-0.45056 0.3328-0.88064 0.68608-1.34656 0.9984l0.06656-0.0256a41.1136 41.1136 0 0 1-7.81312 4.16768z" p-id="3845" fill="#ffffff"></path></svg>